<svg width="139" height="217" viewBox="0 0 139 217" fill="none" xmlns="http://www.w3.org/2000/svg">
<path d="M39.832 177.184L40.6 169.504H41.368C44.696 172.405 48.4507 174.667 52.632 176.288C56.8133 177.909 60.952 178.72 65.048 178.72C70.8507 178.72 75.544 177.141 79.128 173.984C82.712 170.741 84.504 166.432 84.504 161.056C84.504 158.069 83.8213 155.296 82.456 152.736C81.176 150.176 79 147.573 75.928 144.928C72.9413 142.283 68.8027 139.424 63.512 136.352C59.8427 134.219 56.344 132 53.016 129.696C49.688 127.307 46.9573 124.576 44.824 121.504C42.6907 118.347 41.624 114.592 41.624 110.24C41.624 103.755 43.9707 98.5493 48.664 94.624C53.3573 90.6133 59.544 88.608 67.224 88.608C70.6373 88.608 74.3067 88.992 78.232 89.76C82.1573 90.4427 85.1867 91.3387 87.32 92.448L86.68 99.616H85.912C81.048 94.3253 74.8187 91.68 67.224 91.68C61.7627 91.68 57.368 93.088 54.04 95.904C50.712 98.6347 49.048 102.347 49.048 107.04C49.048 110.539 49.944 113.568 51.736 116.128C53.6133 118.603 56.0027 120.864 58.904 122.912C61.8053 124.875 64.92 126.795 68.248 128.672C72.088 130.891 75.8 133.237 79.384 135.712C83.0533 138.187 86.04 141.173 88.344 144.672C90.7333 148.085 91.928 152.395 91.928 157.6C91.928 162.379 90.8187 166.603 88.6 170.272C86.3813 173.856 83.224 176.672 79.128 178.72C75.1173 180.768 70.424 181.792 65.048 181.792C61.6347 181.792 57.624 181.365 53.016 180.512C48.408 179.659 44.0133 178.549 39.832 177.184Z" fill="white"/>
<path d="M61.974 130.163L62.1481 92.2759L30.6422 40.4185L40.3701 40.4632L68.6984 87.4419L69.4664 87.4455L92.4655 40.7027L102.193 40.7474L71.3723 90.5263L71.1899 130.206L61.974 130.163Z" fill="white"/>
<path d="M79.128 94.104L87.048 93.213V144H79.128V94.104ZM77.841 79.947C77.841 78.429 78.336 77.175 79.326 76.185C80.382 75.129 81.669 74.601 83.187 74.601C84.771 74.601 86.091 75.129 87.147 76.185C88.269 77.175 88.83 78.429 88.83 79.947C88.83 81.465 88.269 82.752 87.147 83.808C86.091 84.798 84.771 85.293 83.187 85.293C81.669 85.293 80.382 84.798 79.326 83.808C78.336 82.752 77.841 81.465 77.841 79.947Z" fill="white"/>
<path d="M75 6H64C29.2061 6 1 34.2061 1 69V153C1 187.794 29.2061 216 64 216H79.5C108.495 216 132 192.495 132 163.5V163.5V153V142.5V140" stroke="white"/>
<path d="M77.2435 12.7066L77.4014 11.7976L77.4929 11.8042C77.8646 12.1789 78.2927 12.4809 78.7772 12.7103C79.2617 12.9397 79.7481 13.0721 80.2364 13.1075C80.9282 13.1576 81.5014 13.0099 81.9559 12.6644C82.4112 12.3088 82.6621 11.8105 82.7085 11.1696C82.7343 10.8135 82.6769 10.477 82.5362 10.16C82.4057 9.84377 82.1688 9.51469 81.8254 9.17279C81.4921 8.83162 81.0234 8.45507 80.4192 8.04314C80.0002 7.75712 79.6022 7.4624 79.2254 7.15897C78.8492 6.84538 78.5473 6.49625 78.3195 6.11159C78.0924 5.71675 77.9977 5.25991 78.0353 4.74107C78.0913 3.96789 78.416 3.36759 79.0094 2.94015C79.6036 2.50253 80.3585 2.31689 81.2741 2.38321C81.681 2.41269 82.1151 2.49016 82.5765 2.61562C83.0386 2.73091 83.392 2.86389 83.6367 3.01457L83.4985 3.8636L83.407 3.85697C82.8728 3.18422 82.153 2.81504 81.2475 2.74945C80.5964 2.70229 80.0604 2.8322 79.6393 3.13917C79.2189 3.43598 78.9885 3.86415 78.948 4.42368C78.9178 4.84079 78.9984 5.20968 79.1899 5.53036C79.3924 5.8416 79.6577 6.13183 79.9859 6.40104C80.3149 6.66009 80.6696 6.91589 81.0502 7.16844C81.4888 7.46611 81.9111 7.77794 82.317 8.10392C82.7331 8.43063 83.0633 8.81249 83.3078 9.2495C83.5632 9.67707 83.6684 10.2011 83.6234 10.8217C83.5822 11.3914 83.4134 11.8854 83.1172 12.3037C82.8218 12.7118 82.421 13.0203 81.915 13.2291C81.4192 13.4386 80.8508 13.5201 80.2099 13.4737C79.803 13.4442 79.3285 13.3587 78.7865 13.2172C78.2445 13.0757 77.7302 12.9055 77.2435 12.7066Z" fill="white"/>
<path d="M86.6812 14.0984L88.8233 3.60481L89.8427 3.8129L87.7005 14.3065L86.6812 14.0984Z" fill="white"/>
<path d="M94.2232 16.2003L97.9621 6.49133C97.8193 6.43635 97.5132 6.35127 97.0438 6.2361L94.1079 5.51538L94.3883 4.78721L102.727 7.99823L102.446 8.7264L99.7852 7.29178C99.3598 7.06239 99.0757 6.9202 98.933 6.86522L95.1941 16.5742L94.2232 16.2003Z" fill="white"/>
<path d="M116.322 17.282L109.738 25.7288L108.917 25.0891L114.956 17.3422L114.884 17.2858L107.599 20.6084L107.225 20.3168L107.754 12.7947L107.681 12.7383L102.425 20.0284L101.605 19.3888L108.623 11.0083L108.864 11.1964L108.263 19.8067L108.335 19.8631L115.453 16.6047L116.322 17.282Z" fill="white"/>
<path d="M116.922 25.641C117.572 25.1993 118.252 24.9031 118.964 24.7523C119.689 24.6041 120.399 24.5962 121.094 24.7284C121.802 24.8634 122.46 25.1317 123.066 25.5336C123.686 25.9381 124.218 26.465 124.659 27.1145C125.101 27.764 125.393 28.4473 125.535 29.1646C125.692 29.8846 125.7 30.5946 125.559 31.2947C125.433 31.9975 125.164 32.6549 124.754 33.2669C124.358 33.8816 123.835 34.4098 123.186 34.8515C122.536 35.2931 121.849 35.588 121.123 35.7362C120.411 35.887 119.701 35.8949 118.993 35.76C118.298 35.6278 117.641 35.3594 117.021 34.9549C116.414 34.5531 115.89 34.0274 115.449 33.378C115.007 32.7285 114.708 32.0438 114.551 31.3238C114.409 30.6065 114.401 29.8965 114.528 29.1937C114.668 28.4937 114.937 27.8362 115.333 27.2215C115.743 26.6095 116.273 26.0827 116.922 25.641ZM117.576 26.6025C116.716 27.1876 116.064 27.8528 115.621 28.598C115.187 29.3376 114.974 30.1048 114.985 30.8997C115.003 31.6889 115.259 32.4461 115.752 33.1715C116.246 33.8969 116.856 34.4132 117.583 34.7205C118.318 35.0221 119.114 35.1039 119.97 34.9659C120.826 34.8279 121.68 34.4693 122.532 33.8899C123.384 33.3106 124.027 32.6512 124.461 31.9116C124.904 31.1663 125.121 30.3962 125.111 29.6014C125.101 28.8065 124.849 28.0464 124.356 27.321C123.862 26.5956 123.248 26.0821 122.512 25.7805C121.791 25.4816 121 25.397 120.138 25.5265C119.29 25.6588 118.436 26.0175 117.576 26.6025Z" fill="white"/>
<path d="M120.248 41.1164L130.598 37.5997L130.663 37.7713L124.695 48.2662L124.728 48.352L133.106 44.8141L133.475 45.7868L123.125 49.3036L123.06 49.1319L129.028 38.6371L128.995 38.5513L120.617 42.0892L120.248 41.1164Z" fill="white"/>
<path d="M124.897 56.0465L135.137 54.2087C135.11 54.0581 135.024 53.7523 134.879 53.2913L133.973 50.4072L134.741 50.2693L136.319 59.064L135.551 59.2019L135.398 56.1827C135.374 55.7 135.348 55.3834 135.321 55.2328L125.081 57.0705L124.897 56.0465Z" fill="white"/>
<path d="M125.341 63.8132H136.051V68.4797H135.301L135.653 65.8022C135.714 65.333 135.745 65.0168 135.745 64.8536H131.078C131.078 64.9862 131.094 65.3024 131.124 65.8022L131.277 68.3114H130.573L130.726 65.8022C130.757 65.3024 130.772 64.9862 130.772 64.8536H125.647C125.647 65.0372 125.677 65.3585 125.739 65.8175L126.091 68.5256H125.341V63.8132Z" fill="white"/>
<path d="M136.051 71.7429V73.7931C136.051 74.8743 135.821 75.7107 135.362 76.3023C134.914 76.9041 134.281 77.205 133.465 77.205C132.833 77.205 132.307 77.0163 131.889 76.6389C131.471 76.2717 131.191 75.7362 131.048 75.0324H130.956C130.823 75.7056 130.507 76.2564 130.007 76.6848C129.508 77.1132 128.89 77.4345 128.156 77.6487C127.483 77.8425 126.958 78.0312 126.58 78.2148C126.213 78.4086 125.948 78.6177 125.785 78.8421C125.621 79.0767 125.504 79.3521 125.433 79.6683H125.341V79.041C125.341 78.5922 125.422 78.2199 125.586 77.9241C125.749 77.6385 126.024 77.3937 126.412 77.1897C126.799 76.9857 127.335 76.7919 128.018 76.6083C129.069 76.3125 129.814 75.9198 130.252 75.4302C130.691 74.9406 130.91 74.3439 130.91 73.6401V73.5483H131.185V73.6401C131.185 75.2823 131.94 76.1034 133.45 76.1034C134.939 76.1034 135.684 75.3333 135.684 73.7931V72.7833H125.341V71.7429H136.051Z" fill="white"/>
<path d="M125.341 81.3337L136.265 81.7162V81.8998L126.963 89.5957V89.6875L136.051 89.3509V90.3913L125.127 90.0088V89.8252L134.429 82.1293V82.0375L125.341 82.3741V81.3337Z" fill="white"/>
<path d="M125.341 93.9118L136.265 94.2943V94.4779L126.963 102.174V102.266L136.051 101.929V102.969L125.127 102.587V102.403L134.429 94.7074V94.6156L125.341 94.9522V93.9118Z" fill="white"/>
<path d="M125.341 105.128L136.051 109.244V110.193L125.341 114.308V113.191L130.359 111.294V107.821L125.341 106.245V105.128ZM135.255 109.351L130.726 107.928V111.156L135.255 109.443V109.351Z" fill="white"/>
<path d="M125.341 127.35H129.87L136.051 123.556V124.719L130.451 128.131V128.223L136.051 130.946V132.109L130.084 128.452H125.341V127.35Z" fill="white"/>
<path d="M125.341 134.493H136.051V135.533H125.341V134.493Z" fill="white"/>
</svg>
