<svg width="434" height="408" viewBox="0 0 434 408" fill="none" xmlns="http://www.w3.org/2000/svg">
<path d="M369.768 347.677H305.493V253.021C305.493 230.438 304.994 201.389 271.988 201.389C238.483 201.389 233.362 225.95 233.362 251.348V347.677H169.108V153H230.823V179.52H231.669C240.284 164.22 261.268 148.104 292.603 148.104C357.725 148.104 369.768 188.374 369.768 240.822V347.677ZM96.4999 126.358C75.7981 126.358 59.1759 110.629 59.1759 91.2696C59.1759 71.91 75.8198 56.1816 96.4999 56.1816C106.399 56.1816 115.892 59.8784 122.892 66.4586C129.892 73.0389 133.824 81.9637 133.824 91.2696C133.824 100.576 129.892 109.5 122.892 116.081C115.892 122.661 106.399 126.358 96.4999 126.358ZM128.703 347.698H64.2537V153H128.703V347.698ZM401.927 0H32.0292C14.322 0 0 13.158 0 29.376V378.624C0 394.842 14.322 408 32.0292 408H401.841C419.526 408 434 394.862 434 378.624V29.376C434 13.1784 419.526 0 401.841 0H401.927Z" fill="#8F8E49"/>
</svg>
