<svg width="487" height="360" viewBox="0 0 487 360" fill="none" xmlns="http://www.w3.org/2000/svg">
<path d="M438.3 0H48.7C35.784 0 23.3969 4.74106 14.2639 13.1802C5.13088 21.6193 0 33.0653 0 45V315C0 326.935 5.13088 338.381 14.2639 346.82C23.3969 355.259 35.784 360 48.7 360H438.3C451.216 360 463.603 355.259 472.736 346.82C481.869 338.381 487 326.935 487 315V45C487 33.0653 481.869 21.6193 472.736 13.1802C463.603 4.74106 451.216 0 438.3 0ZM438.3 95.31L243.5 205.155L48.7 95.31V45H438.3V95.31Z" fill="#8F8E49"/>
</svg>
