<svg width="309" height="2623" viewBox="0 0 309 2623" fill="none" xmlns="http://www.w3.org/2000/svg">
<path d="M305.3 2523.37C305.3 2541.67 303.65 2559.37 300.35 2576.47C297.05 2593.57 292.25 2608.87 285.95 2622.37H197.75C196.85 2617.57 196.85 2612.77 197.75 2607.97C215.75 2605.57 231.5 2600.32 245 2592.22C258.2 2583.82 268.55 2573.32 276.05 2560.72C283.55 2547.82 287.3 2533.72 287.3 2518.42C287.3 2496.82 282.5 2480.32 272.9 2468.92C263 2457.52 250.55 2451.82 235.55 2451.82C223.85 2451.82 214.25 2454.82 206.75 2460.82C199.25 2466.82 192.95 2474.77 187.85 2484.67C182.45 2494.27 177.5 2504.92 173 2516.62C168.5 2528.32 163.55 2540.17 158.15 2552.17C152.75 2563.87 146.15 2574.67 138.35 2584.57C130.55 2594.17 120.8 2601.97 109.1 2607.97C97.1 2613.97 82.4 2616.97 65 2616.97C46.1 2616.97 30.2 2612.32 17.3 2603.02C4.09999 2593.42 -5.80001 2580.22 -12.4 2563.42C-19 2546.32 -22.3 2526.67 -22.3 2504.47C-22.3 2486.17 -20.65 2470.12 -17.35 2456.32C-14.05 2442.22 -9.40002 2429.62 -3.40002 2418.52H78.5C79.4 2423.32 79.4 2428.12 78.5 2432.92C52.7 2436.22 32.45 2444.02 17.75 2456.32C3.04999 2468.32 -4.30001 2485.27 -4.30001 2507.17C-4.30001 2525.17 -0.400008 2539.42 7.4 2549.92C14.9 2560.12 26.6 2565.22 42.5 2565.22C52.4 2565.22 60.65 2562.22 67.25 2556.22C73.85 2549.92 79.55 2541.82 84.35 2531.92C89.15 2521.72 93.8 2510.62 98.3 2498.62C102.5 2486.32 107.3 2474.17 112.7 2462.17C118.1 2450.17 124.85 2439.22 132.95 2429.32C140.75 2419.12 150.5 2411.02 162.2 2405.02C173.9 2398.72 188.45 2395.57 205.85 2395.57C225.65 2395.57 243.05 2400.82 258.05 2411.32C272.75 2421.52 284.3 2436.22 292.7 2455.42C301.1 2474.32 305.3 2496.97 305.3 2523.37ZM299.9 2287.82C294.2 2289.02 288.65 2289.02 283.25 2287.82L283.25 2257.67C270.95 2256.17 258.2 2255.12 245 2254.52C231.5 2253.62 218 2253.17 204.5 2253.17H78.5C65 2253.17 51.65 2253.62 38.45 2254.52C24.95 2255.12 12.05 2256.17 -0.25001 2257.67V2287.82C-5.95001 2289.02 -11.5 2289.02 -16.9 2287.82C-16.6 2277.32 -16.3 2265.92 -16 2253.62C-16 2241.02 -16 2229.62 -16 2219.42L-16 2061.92H69.5C70.4 2066.72 70.4 2071.52 69.5 2076.32C49.1 2077.52 32.75 2083.22 20.45 2093.42C8.14999 2103.62 1.99999 2120.42 1.99999 2143.82V2181.17C15.5 2182.67 28.25 2183.87 40.25 2184.77C52.25 2185.37 65 2185.67 78.5 2185.67H204.5C218 2185.67 230.75 2185.37 242.75 2184.77C254.75 2183.87 267.5 2182.67 281 2181.17V2128.07C281 2112.47 277.85 2099.87 271.55 2090.27C265.25 2080.67 257 2073.47 246.8 2068.67C236.6 2063.87 225.5 2061.17 213.5 2060.57C212.6 2055.77 212.6 2050.97 213.5 2046.17H299V2219.42C299 2229.62 299 2241.02 299 2253.62C299 2265.92 299.3 2277.32 299.9 2287.82ZM186.5 2110.07C172.4 2110.37 162.2 2113.52 155.9 2119.52C149.3 2125.52 146 2134.82 146 2147.42V2219.42H128V2147.42C128 2134.82 124.7 2125.52 118.1 2119.52C111.5 2113.52 101.3 2110.37 87.5 2110.07C86.6 2105.27 86.6 2100.47 87.5 2095.67H186.5C187.4 2100.47 187.4 2105.27 186.5 2110.07ZM283.25 1642.96C288.35 1642.06 293.6 1642.06 299 1642.96C300.5 1652.26 301.55 1660.06 302.15 1666.36C303.05 1672.36 303.5 1678.36 303.5 1684.36C303.5 1700.26 301.55 1712.56 297.65 1721.26C293.75 1729.66 287.9 1735.96 280.1 1740.16C272.3 1744.06 262.55 1747.06 250.85 1749.16L191.9 1759.96C179.9 1762.06 170.75 1766.86 164.45 1774.36C158.15 1781.56 155 1792.51 155 1807.21V1867.96H137V1807.21C137 1792.51 131.6 1779.91 120.8 1769.41C109.7 1758.61 92.6 1753.21 69.5 1753.21C46.4 1753.21 29.45 1758.46 18.65 1768.96C7.54999 1779.46 1.99999 1793.71 1.99999 1811.71V1832.86C15.5 1834.36 28.25 1835.56 40.25 1836.46C52.25 1837.06 65 1837.36 78.5 1837.36H204.5C218 1837.36 231.5 1837.06 245 1836.46C258.2 1835.56 270.95 1834.36 283.25 1832.86V1802.71C288.65 1801.51 294.2 1801.51 299.9 1802.71C299.3 1812.91 299 1824.31 299 1836.91C299 1849.21 299 1860.61 299 1871.11C299 1881.31 299 1892.71 299 1905.31C299 1917.61 299.3 1929.01 299.9 1939.51C294.2 1940.71 288.65 1940.71 283.25 1939.51V1909.36C270.95 1907.86 258.2 1906.81 245 1906.21C231.5 1905.31 218 1904.86 204.5 1904.86H78.5C65 1904.86 51.65 1905.31 38.45 1906.21C24.95 1906.81 12.05 1907.86 -0.25001 1909.36V1939.51C-5.95001 1940.71 -11.5 1940.71 -16.9 1939.51C-16.6 1929.01 -16.3 1917.61 -16 1905.31C-16 1892.71 -16 1881.31 -16 1871.11V1798.21C-16 1776.31 -13.3 1756.36 -7.90002 1738.36C-2.80001 1720.36 5.59999 1705.96 17.3 1695.16C29 1684.36 44.6 1678.96 64.1 1678.96C80.9 1678.96 94.55 1682.86 105.05 1690.66C115.55 1698.46 123.65 1708.36 129.35 1720.36C134.75 1732.06 138.95 1743.91 141.95 1755.91C143.15 1736.11 147.95 1720.96 156.35 1710.46C164.45 1699.66 176.3 1692.76 191.9 1689.76L250.85 1678.51C263.45 1676.11 271.85 1672.36 276.05 1667.26C279.95 1662.16 282.35 1654.06 283.25 1642.96ZM-16.9 1281.83C-11.5 1280.63 -5.95001 1280.63 -0.25001 1281.83V1307.48C13.25 1314.08 26.3 1319.78 38.9 1324.58C51.5 1329.38 64.7 1334.03 78.5 1338.53L217.55 1384.88C229.25 1388.78 243.5 1393.28 260.3 1398.38C276.8 1403.18 292.7 1406.63 308 1408.73C308.3 1411.73 308.45 1415.93 308.45 1421.33C308.75 1426.43 308.75 1431.68 308.45 1437.08C308.45 1442.18 308.3 1446.23 308 1449.23L217.55 1406.03L78.5 1359.68C64.4 1354.88 51.2 1351.28 38.9 1348.88C26.3 1346.18 13.25 1344.53 -0.25001 1343.93L-0.25001 1384.88C-2.05 1385.18 -4.75001 1385.33 -8.35001 1385.33C-12.25 1385.33 -15.1 1385.18 -16.9 1384.88C-16.6 1372.58 -16.3 1360.88 -16 1349.78C-16 1338.38 -16 1330.13 -16 1325.03C-16 1319.63 -16 1313.78 -16 1307.48C-16.3 1300.88 -16.6 1292.33 -16.9 1281.83ZM-0.25001 1565.78L-0.25001 1584.68C-5.95001 1585.88 -11.5 1585.88 -16.9 1584.68C-16.6 1577.48 -16.3 1571.33 -16 1566.23C-16 1560.83 -16 1554.83 -16 1548.23C-16 1541.63 -16 1533.08 -16 1522.58C-16 1507.58 -16 1494.68 -16 1483.88C-16.3 1472.78 -16.6 1462.13 -16.9 1451.93C-11.5 1450.73 -5.95001 1450.73 -0.25001 1451.93V1481.63C13.25 1479.23 26.3 1475.93 38.9 1471.73C51.2 1467.53 64.4 1462.88 78.5 1457.78L217.55 1406.03L308 1449.23C297.8 1451.03 287.45 1453.73 276.95 1457.33C266.15 1460.63 255.05 1464.38 243.65 1468.58C232.25 1472.78 220.7 1477.13 209 1481.63L78.5 1531.13C62.6 1536.83 48.65 1542.23 36.65 1547.33C24.65 1552.13 12.35 1558.28 -0.25001 1565.78ZM299.9 1197.18C294.2 1198.38 288.65 1198.38 283.25 1197.18V1167.03C270.95 1165.53 258.2 1164.48 245 1163.88C231.5 1162.98 218 1162.53 204.5 1162.53H78.5C65 1162.53 51.65 1162.98 38.45 1163.88C24.95 1164.48 12.05 1165.53 -0.25001 1167.03V1197.18C-5.95001 1198.38 -11.5 1198.38 -16.9 1197.18C-16.6 1186.68 -16.3 1175.28 -16 1162.98C-16 1150.38 -16 1138.98 -16 1128.78C-16 1118.28 -16 1106.88 -16 1094.58C-16.3 1081.98 -16.6 1070.58 -16.9 1060.38C-11.5 1059.18 -5.95001 1059.18 -0.25001 1060.38V1090.53C12.05 1092.03 24.95 1093.23 38.45 1094.13C51.65 1094.73 65 1095.03 78.5 1095.03H204.5C218 1095.03 231.5 1094.73 245 1094.13C258.2 1093.23 270.95 1092.03 283.25 1090.53V1060.38C288.65 1059.18 294.2 1059.18 299.9 1060.38C299.3 1070.58 299 1081.98 299 1094.58C299 1106.88 299 1118.28 299 1128.78C299 1138.98 299 1150.38 299 1162.98C299 1175.28 299.3 1186.68 299.9 1197.18ZM202.25 706.715C201.35 701.915 201.35 697.115 202.25 692.315H283.25C290.45 707.015 296 722.165 299.9 737.765C303.8 753.365 305.75 770.465 305.75 789.065C305.75 824.165 298.85 854.315 285.05 879.515C271.25 904.715 252.05 924.065 227.45 937.565C202.85 951.065 174.2 957.815 141.5 957.815C108.8 957.815 80.15 950.915 55.55 937.115C30.95 923.315 11.75 903.815 -2.05001 878.615C-15.85 853.415 -22.75 823.565 -22.75 789.065C-22.75 773.465 -21.1 757.865 -17.8 742.265C-14.8 726.665 -9.7 711.515 -2.50001 696.815H80.75C81.65 701.615 81.65 706.415 80.75 711.215C51.35 716.915 29.9 725.915 16.4 738.215C2.89999 750.215 -3.85002 768.665 -3.85002 793.565C-3.85002 809.765 -0.250019 823.565 6.94998 834.965C13.85 846.065 23.6 855.065 36.2 861.965C48.8 868.865 63.5 873.815 80.3 876.815C96.8 879.815 114.8 881.315 134.3 881.315C152.6 881.315 170.9 879.815 189.2 876.815C207.2 873.815 223.55 868.865 238.25 861.965C252.95 854.765 264.8 845.165 273.8 833.165C282.5 820.865 286.85 805.415 286.85 786.815C286.85 772.715 284 760.265 278.3 749.465C272.3 738.365 263 729.215 250.4 722.015C237.8 714.815 221.75 709.715 202.25 706.715ZM299.9 581.861C294.2 583.061 288.65 583.061 283.25 581.861V551.711C270.95 550.211 258.2 549.161 245 548.561C231.5 547.661 218 547.211 204.5 547.211H78.5C65 547.211 51.65 547.661 38.45 548.561C24.95 549.161 12.05 550.211 -0.25001 551.711V581.861C-5.95001 583.061 -11.5 583.061 -16.9 581.861C-16.6 571.361 -16.3 559.961 -16 547.661C-16 535.061 -16 523.661 -16 513.461V355.961H69.5C70.4 360.761 70.4 365.561 69.5 370.361C49.1 371.561 32.75 377.261 20.45 387.461C8.14999 397.661 1.99999 414.461 1.99999 437.861V475.211C15.5 476.711 28.25 477.911 40.25 478.811C52.25 479.411 65 479.711 78.5 479.711H204.5C218 479.711 230.75 479.411 242.75 478.811C254.75 477.911 267.5 476.711 281 475.211V422.111C281 406.511 277.85 393.911 271.55 384.311C265.25 374.711 257 367.511 246.8 362.711C236.6 357.911 225.5 355.211 213.5 354.611C212.6 349.811 212.6 345.011 213.5 340.211H299V513.461C299 523.661 299 535.061 299 547.661C299 559.961 299.3 571.361 299.9 581.861ZM186.5 404.111C172.4 404.411 162.2 407.561 155.9 413.561C149.3 419.561 146 428.861 146 441.461L146 513.461H128L128 441.461C128 428.861 124.7 419.561 118.1 413.561C111.5 407.561 101.3 404.411 87.5 404.111C86.6 399.311 86.6 394.511 87.5 389.711H186.5C187.4 394.511 187.4 399.311 186.5 404.111ZM305.3 128.7C305.3 147 303.65 164.7 300.35 181.8C297.05 198.9 292.25 214.2 285.95 227.7H197.75C196.85 222.9 196.85 218.1 197.75 213.3C215.75 210.9 231.5 205.65 245 197.55C258.2 189.15 268.55 178.65 276.05 166.05C283.55 153.15 287.3 139.05 287.3 123.75C287.3 102.15 282.5 85.6504 272.9 74.2504C263 62.8504 250.55 57.1504 235.55 57.1504C223.85 57.1504 214.25 60.1504 206.75 66.1504C199.25 72.1504 192.95 80.1004 187.85 90.0004C182.45 99.6004 177.5 110.25 173 121.95C168.5 133.65 163.55 145.5 158.15 157.5C152.75 169.2 146.15 180 138.35 189.9C130.55 199.5 120.8 207.3 109.1 213.3C97.1 219.3 82.4 222.3 65 222.3C46.1 222.3 30.2 217.65 17.3 208.35C4.09999 198.75 -5.80001 185.55 -12.4 168.75C-19 151.65 -22.3 132 -22.3 109.8C-22.3 91.5004 -20.65 75.4504 -17.35 61.6504C-14.05 47.5504 -9.40002 34.9504 -3.40002 23.8504H78.5C79.4 28.6504 79.4 33.4504 78.5 38.2504C52.7 41.5504 32.45 49.3504 17.75 61.6504C3.04999 73.6504 -4.30001 90.6004 -4.30001 112.5C-4.30001 130.5 -0.400008 144.75 7.4 155.25C14.9 165.45 26.6 170.55 42.5 170.55C52.4 170.55 60.65 167.55 67.25 161.55C73.85 155.25 79.55 147.15 84.35 137.25C89.15 127.05 93.8 115.95 98.3 103.95C102.5 91.6504 107.3 79.5004 112.7 67.5004C118.1 55.5004 124.85 44.5504 132.95 34.6504C140.75 24.4504 150.5 16.3504 162.2 10.3504C173.9 4.05038 188.45 0.90039 205.85 0.90039C225.65 0.90039 243.05 6.15038 258.05 16.6504C272.75 26.8504 284.3 41.5504 292.7 60.7504C301.1 79.6504 305.3 102.3 305.3 128.7Z" fill="#A6A655"/>
</svg>
