<svg width="222" height="1760" viewBox="0 0 222 1760" fill="none" xmlns="http://www.w3.org/2000/svg">
<path d="M219.2 1694C219.2 1706.2 218.1 1718 215.9 1729.4C213.7 1740.8 210.5 1751 206.3 1760H147.5C146.9 1756.8 146.9 1753.6 147.5 1750.4C159.5 1748.8 170 1745.3 179 1739.9C187.8 1734.3 194.7 1727.3 199.7 1718.9C204.7 1710.3 207.2 1700.9 207.2 1690.7C207.2 1676.3 204 1665.3 197.6 1657.7C191 1650.1 182.7 1646.3 172.7 1646.3C164.9 1646.3 158.5 1648.3 153.5 1652.3C148.5 1656.3 144.3 1661.6 140.9 1668.2C137.3 1674.6 134 1681.7 131 1689.5C128 1697.3 124.7 1705.2 121.1 1713.2C117.5 1721 113.1 1728.2 107.9 1734.8C102.7 1741.2 96.2 1746.4 88.4 1750.4C80.4 1754.4 70.6 1756.4 59 1756.4C46.4 1756.4 35.8 1753.3 27.2 1747.1C18.4 1740.7 11.8 1731.9 7.39999 1720.7C2.99999 1709.3 0.799986 1696.2 0.799986 1681.4C0.799986 1669.2 1.89999 1658.5 4.1 1649.3C6.29999 1639.9 9.39999 1631.5 13.4 1624.1H68C68.6 1627.3 68.6 1630.5 68 1633.7C50.8 1635.9 37.3 1641.1 27.5 1649.3C17.7 1657.3 12.8 1668.6 12.8 1683.2C12.8 1695.2 15.4 1704.7 20.6 1711.7C25.6 1718.5 33.4 1721.9 44 1721.9C50.6 1721.9 56.1 1719.9 60.5 1715.9C64.9 1711.7 68.7 1706.3 71.9 1699.7C75.1 1692.9 78.2 1685.5 81.2 1677.5C84 1669.3 87.2 1661.2 90.8 1653.2C94.4 1645.2 98.9 1637.9 104.3 1631.3C109.5 1624.5 116 1619.1 123.8 1615.1C131.6 1610.9 141.3 1608.8 152.9 1608.8C166.1 1608.8 177.7 1612.3 187.7 1619.3C197.5 1626.1 205.2 1635.9 210.8 1648.7C216.4 1661.3 219.2 1676.4 219.2 1694ZM215.6 1536.97C211.8 1537.77 208.1 1537.77 204.5 1536.97V1516.87C196.3 1515.87 187.8 1515.17 179 1514.77C170 1514.17 161 1513.87 152 1513.87H68C59 1513.87 50.1 1514.17 41.3 1514.77C32.3 1515.17 23.7 1515.87 15.5 1516.87V1536.97C11.7 1537.77 7.99999 1537.77 4.39999 1536.97C4.59999 1529.97 4.79999 1522.37 4.99999 1514.17C4.99999 1505.77 4.99999 1498.17 4.99999 1491.37L4.99999 1386.37H62C62.6 1389.57 62.6 1392.77 62 1395.97C48.4 1396.77 37.5 1400.57 29.3 1407.37C21.1 1414.17 17 1425.37 17 1440.97V1465.87C26 1466.87 34.5 1467.67 42.5 1468.27C50.5 1468.67 59 1468.87 68 1468.87H152C161 1468.87 169.5 1468.67 177.5 1468.27C185.5 1467.67 194 1466.87 203 1465.87V1430.47C203 1420.07 200.9 1411.67 196.7 1405.27C192.5 1398.87 187 1394.07 180.2 1390.87C173.4 1387.67 166 1385.87 158 1385.47C157.4 1382.27 157.4 1379.07 158 1375.87H215V1491.37C215 1498.17 215 1505.77 215 1514.17C215 1522.37 215.2 1529.97 215.6 1536.97ZM140 1418.47C130.6 1418.67 123.8 1420.77 119.6 1424.77C115.2 1428.77 113 1434.97 113 1443.37V1491.37H101V1443.37C101 1434.97 98.8 1428.77 94.4 1424.77C90 1420.77 83.2 1418.67 74 1418.47C73.4 1415.27 73.4 1412.07 74 1408.87H140C140.6 1412.07 140.6 1415.27 140 1418.47ZM150.5 1137.63C149.9 1134.43 149.9 1131.23 150.5 1128.03H204.5C209.3 1137.83 213 1147.93 215.6 1158.33C218.2 1168.73 219.5 1180.13 219.5 1192.53C219.5 1215.93 214.9 1236.03 205.7 1252.83C196.5 1269.63 183.7 1282.53 167.3 1291.53C150.9 1300.53 131.8 1305.03 110 1305.03C88.2 1305.03 69.1 1300.43 52.7 1291.23C36.3 1282.03 23.5 1269.03 14.3 1252.23C5.09999 1235.43 0.49999 1215.53 0.49999 1192.53C0.49999 1182.13 1.59999 1171.73 3.79998 1161.33C5.79999 1150.93 9.2 1140.83 14 1131.03H69.5C70.1 1134.23 70.1 1137.43 69.5 1140.63C49.9 1144.43 35.6 1150.43 26.6 1158.63C17.6 1166.63 13.1 1178.93 13.1 1195.53C13.1 1206.33 15.5 1215.53 20.3 1223.13C24.9 1230.53 31.4 1236.53 39.8 1241.13C48.2 1245.73 58 1249.03 69.2 1251.03C80.2 1253.03 92.2 1254.03 105.2 1254.03C117.4 1254.03 129.6 1253.03 141.8 1251.03C153.8 1249.03 164.7 1245.73 174.5 1241.13C184.3 1236.33 192.2 1229.93 198.2 1221.93C204 1213.73 206.9 1203.43 206.9 1191.03C206.9 1181.63 205 1173.33 201.2 1166.13C197.2 1158.73 191 1152.63 182.6 1147.83C174.2 1143.03 163.5 1139.63 150.5 1137.63ZM215.6 1054.39C211.8 1055.19 208.1 1055.19 204.5 1054.39V1034.29C196.3 1033.29 187.8 1032.59 179 1032.19C170 1031.59 161 1031.29 152 1031.29H68C59 1031.29 50.1 1031.59 41.3 1032.19C32.3 1032.59 23.7 1033.29 15.5 1034.29V1054.39C11.7 1055.19 7.99999 1055.19 4.39999 1054.39C4.59999 1047.39 4.79999 1039.79 4.99999 1031.59C4.99999 1023.19 4.99999 1015.59 4.99999 1008.79C4.99999 1001.79 4.99999 994.193 4.99999 985.993C4.79999 977.593 4.59999 969.993 4.39999 963.193C7.99999 962.393 11.7 962.393 15.5 963.193V983.293C23.7 984.293 32.3 985.093 41.3 985.693C50.1 986.093 59 986.293 68 986.293H152C161 986.293 170 986.093 179 985.693C187.8 985.093 196.3 984.293 204.5 983.293V963.193C208.1 962.393 211.8 962.393 215.6 963.193C215.2 969.993 215 977.593 215 985.993C215 994.193 215 1001.79 215 1008.79C215 1015.59 215 1023.19 215 1031.59C215 1039.79 215.2 1047.39 215.6 1054.39ZM4.39999 705.298C7.99999 704.498 11.7 704.498 15.5 705.298L15.5 722.398C24.5 726.798 33.2 730.598 41.6 733.798C50 736.998 58.8 740.098 68 743.098L160.7 773.998C168.5 776.598 178 779.598 189.2 782.998C200.2 786.198 210.8 788.498 221 789.898C221.2 791.898 221.3 794.698 221.3 798.298C221.5 801.698 221.5 805.198 221.3 808.798C221.3 812.198 221.2 814.898 221 816.898L160.7 788.098L68 757.198C58.6 753.998 49.8 751.598 41.6 749.998C33.2 748.198 24.5 747.098 15.5 746.698V773.998C14.3 774.198 12.5 774.298 10.1 774.298C7.49999 774.298 5.59999 774.198 4.39999 773.998C4.59999 765.798 4.79999 757.998 4.99999 750.598C4.99999 742.998 4.99999 737.498 4.99999 734.098C4.99999 730.498 4.99999 726.598 4.99999 722.398C4.79999 717.998 4.59999 712.298 4.39999 705.298ZM15.5 894.598V907.198C11.7 907.998 7.99999 907.998 4.39999 907.198C4.59999 902.398 4.79999 898.298 4.99999 894.898C4.99999 891.298 4.99999 887.298 4.99999 882.898C4.99999 878.498 4.99999 872.798 4.99999 865.798C4.99999 855.798 4.99999 847.198 4.99999 839.998C4.79999 832.598 4.59999 825.498 4.39999 818.698C7.99999 817.898 11.7 817.898 15.5 818.698L15.5 838.498C24.5 836.898 33.2 834.698 41.6 831.898C49.8 829.098 58.6 825.998 68 822.598L160.7 788.098L221 816.898C214.2 818.098 207.3 819.898 200.3 822.298C193.1 824.498 185.7 826.998 178.1 829.798C170.5 832.598 162.8 835.498 155 838.498L68 871.498C57.4 875.298 48.1 878.898 40.1 882.298C32.1 885.498 23.9 889.598 15.5 894.598ZM204.5 451.166C207.9 450.566 211.4 450.566 215 451.166C216 457.366 216.7 462.566 217.1 466.766C217.7 470.766 218 474.766 218 478.766C218 489.366 216.7 497.566 214.1 503.366C211.5 508.966 207.6 513.166 202.4 515.966C197.2 518.566 190.7 520.566 182.9 521.966L143.6 529.166C135.6 530.566 129.5 533.766 125.3 538.766C121.1 543.566 119 550.866 119 560.666V601.166H107V560.666C107 550.866 103.4 542.466 96.2 535.466C88.8 528.266 77.4 524.666 62 524.666C46.6 524.666 35.3 528.166 28.1 535.166C20.7 542.166 17 551.666 17 563.666V577.766C26 578.766 34.5 579.566 42.5 580.166C50.5 580.566 59 580.766 68 580.766H152C161 580.766 170 580.566 179 580.166C187.8 579.566 196.3 578.766 204.5 577.766V557.666C208.1 556.866 211.8 556.866 215.6 557.666C215.2 564.466 215 572.066 215 580.466C215 588.666 215 596.266 215 603.266C215 610.066 215 617.666 215 626.066C215 634.266 215.2 641.866 215.6 648.866C211.8 649.666 208.1 649.666 204.5 648.866V628.766C196.3 627.766 187.8 627.066 179 626.666C170 626.066 161 625.766 152 625.766H68C59 625.766 50.1 626.066 41.3 626.666C32.3 627.066 23.7 627.766 15.5 628.766V648.866C11.7 649.666 7.99999 649.666 4.39999 648.866C4.59999 641.866 4.79999 634.266 4.99999 626.066C4.99999 617.666 4.99999 610.066 4.99999 603.266V554.666C4.99999 540.066 6.79999 526.766 10.4 514.766C13.8 502.766 19.4 493.166 27.2 485.966C35 478.766 45.4 475.166 58.4 475.166C69.6 475.166 78.7 477.766 85.7 482.966C92.7 488.166 98.1 494.766 101.9 502.766C105.5 510.566 108.3 518.466 110.3 526.466C111.1 513.266 114.3 503.166 119.9 496.166C125.3 488.966 133.2 484.366 143.6 482.366L182.9 474.866C191.3 473.266 196.9 470.766 199.7 467.366C202.3 463.966 203.9 458.566 204.5 451.166ZM215.6 388.241C211.8 389.041 208.1 389.041 204.5 388.241V368.141C196.3 367.141 187.8 366.441 179 366.041C170 365.441 161 365.141 152 365.141H68C59 365.141 50.1 365.441 41.3 366.041C32.3 366.441 23.7 367.141 15.5 368.141V388.241C11.7 389.041 7.99999 389.041 4.39999 388.241C4.59999 381.241 4.79999 373.641 4.99999 365.441C4.99999 357.041 4.99999 349.441 4.99999 342.641L4.99999 237.641H62C62.6 240.841 62.6 244.041 62 247.241C48.4 248.041 37.5 251.841 29.3 258.641C21.1 265.441 17 276.641 17 292.241L17 317.141C26 318.141 34.5 318.941 42.5 319.541C50.5 319.941 59 320.141 68 320.141H152C161 320.141 169.5 319.941 177.5 319.541C185.5 318.941 194 318.141 203 317.141V281.741C203 271.341 200.9 262.941 196.7 256.541C192.5 250.141 187 245.341 180.2 242.141C173.4 238.941 166 237.141 158 236.741C157.4 233.541 157.4 230.341 158 227.141H215V342.641C215 349.441 215 357.041 215 365.441C215 373.641 215.2 381.241 215.6 388.241ZM140 269.741C130.6 269.941 123.8 272.041 119.6 276.041C115.2 280.041 113 286.241 113 294.641V342.641H101V294.641C101 286.241 98.8 280.041 94.4 276.041C90 272.041 83.2 269.941 74 269.741C73.4 266.541 73.4 263.341 74 260.141H140C140.6 263.341 140.6 266.541 140 269.741ZM219.2 86.1336C219.2 98.3336 218.1 110.134 215.9 121.534C213.7 132.934 210.5 143.134 206.3 152.134H147.5C146.9 148.934 146.9 145.734 147.5 142.534C159.5 140.934 170 137.434 179 132.034C187.8 126.434 194.7 119.434 199.7 111.034C204.7 102.434 207.2 93.0336 207.2 82.8336C207.2 68.4336 204 57.4336 197.6 49.8336C191 42.2336 182.7 38.4336 172.7 38.4336C164.9 38.4336 158.5 40.4336 153.5 44.4336C148.5 48.4336 144.3 53.7336 140.9 60.3336C137.3 66.7336 134 73.8336 131 81.6336C128 89.4336 124.7 97.3336 121.1 105.334C117.5 113.134 113.1 120.334 107.9 126.934C102.7 133.334 96.2 138.534 88.4 142.534C80.4 146.534 70.6 148.534 59 148.534C46.4 148.534 35.8 145.434 27.2 139.234C18.4 132.834 11.8 124.034 7.39999 112.834C2.99999 101.434 0.799986 88.3336 0.799986 73.5336C0.799986 61.3336 1.89999 50.6336 4.1 41.4336C6.29999 32.0336 9.39999 23.6336 13.4 16.2336H68C68.6 19.4336 68.6 22.6336 68 25.8336C50.8 28.0336 37.3 33.2336 27.5 41.4336C17.7 49.4336 12.8 60.7336 12.8 75.3336C12.8 87.3336 15.4 96.8336 20.6 103.834C25.6 110.634 33.4 114.034 44 114.034C50.6 114.034 56.1 112.034 60.5 108.034C64.9 103.834 68.7 98.4336 71.9 91.8336C75.1 85.0336 78.2 77.6336 81.2 69.6336C84 61.4336 87.2 53.3336 90.8 45.3336C94.4 37.3336 98.9 30.0336 104.3 23.4336C109.5 16.6336 116 11.2336 123.8 7.23358C131.6 3.03359 141.3 0.933593 152.9 0.933593C166.1 0.933593 177.7 4.43359 187.7 11.4336C197.5 18.2336 205.2 28.0336 210.8 40.8336C216.4 53.4336 219.2 68.5336 219.2 86.1336Z" fill="#A6A655"/>
</svg>
