<svg width="47" height="33" viewBox="0 0 47 33" fill="none" xmlns="http://www.w3.org/2000/svg">
<path d="M18.917 16.6965C18.917 17.9958 19.4262 19.2418 20.3326 20.1605C21.2391 21.0793 22.4684 21.5954 23.7503 21.5954C25.0322 21.5954 26.2616 21.0793 27.168 20.1605C28.0744 19.2418 28.5837 17.9958 28.5837 16.6965C28.5837 15.3972 28.0744 14.1512 27.168 13.2325C26.2616 12.3137 25.0322 11.7976 23.7503 11.7976C22.4684 11.7976 21.2391 12.3137 20.3326 13.2325C19.4262 14.1512 18.917 15.3972 18.917 16.6965Z" fill="#FBFBFB" stroke="white" stroke-width="3" stroke-linecap="round" stroke-linejoin="round"/>
<path d="M45.5 16.6967C39.7 26.4945 32.45 31.3934 23.75 31.3934C15.05 31.3934 7.8 26.4945 2 16.6967C7.8 6.89889 15.05 2 23.75 2C32.45 2 39.7 6.89889 45.5 16.6967Z" stroke="white" stroke-width="3" stroke-linecap="round" stroke-linejoin="round"/>
</svg>
