<svg width="120" height="120" viewBox="0 0 120 120" fill="none" xmlns="http://www.w3.org/2000/svg">
<path d="M61.5545 11.056L62.9031 1.19468L64.2035 1.37251L63.0013 10.1637L67.6746 10.8028L67.5282 11.8729L61.5545 11.056Z" fill="white"/>
<path d="M74.6449 13.2436L78.6445 4.12947L84.3658 6.6402L83.9318 7.62923L79.4123 5.64593L78.1267 8.57548L82.0704 10.3061L81.6363 11.2951L77.6927 9.56452L76.2808 12.782L80.8629 14.7928L80.4289 15.7818L74.6449 13.2436Z" fill="white"/>
<path d="M86.1462 18.3615L95.5114 13.1589L96.4088 13.9186L92.825 24.0145L91.7814 23.1312L94.5524 15.6251C94.6078 15.475 94.6655 15.3328 94.7255 15.1984C94.7855 15.0641 94.8518 14.9292 94.9247 14.7938L94.8725 14.7497C94.751 14.8438 94.6289 14.9316 94.5063 15.0129C94.3838 15.0943 94.253 15.1747 94.1141 15.2541L87.148 19.2094L86.1462 18.3615ZM89.0663 17.4298L90.072 16.866L93.6409 19.8868L93.2457 20.9674L89.0663 17.4298Z" fill="white"/>
<path d="M97.7775 28.8201L106.131 23.4088L107.893 26.1283C108.473 27.0233 108.696 27.8586 108.563 28.6343C108.43 29.41 107.993 30.0381 107.251 30.5188C106.509 30.9995 105.751 31.1456 104.977 30.9571C104.204 30.7687 103.527 30.227 102.947 29.3319L101.899 27.714L98.4911 29.9216L97.7775 28.8201ZM102.794 27.1342L103.842 28.7522C104.253 29.3871 104.695 29.7285 105.165 29.7765C105.636 29.8244 106.094 29.7046 106.537 29.4172C106.981 29.1298 107.271 28.7652 107.409 28.3233C107.546 27.8814 107.409 27.343 106.998 26.7081L105.95 25.0901L102.794 27.1342ZM100.847 33.5591L103.38 29.0191L104.252 30.0014L101.643 34.7869L100.847 33.5591Z" fill="white"/>
<path d="M105.251 41.0512L114.855 38.4364L115.214 39.7555L109.67 45.934C109.562 46.0578 109.452 46.1751 109.34 46.2858C109.23 46.4008 109.127 46.4997 109.032 46.5824L109.046 46.6352C109.177 46.5949 109.323 46.5504 109.484 46.5017C109.651 46.4562 109.801 46.4155 109.933 46.3796L116.529 44.5837L116.866 45.8237L107.263 48.4385L106.903 47.1193L112.448 40.9409C112.556 40.817 112.665 40.6997 112.777 40.5891C112.889 40.4784 112.991 40.3773 113.084 40.2858L113.072 40.2397C112.941 40.28 112.792 40.3229 112.625 40.3684C112.463 40.4171 112.317 40.4594 112.185 40.4953L105.589 42.2912L105.251 41.0512Z" fill="white"/>
<path d="M108.831 65.6645L118.432 68.2897L117.985 69.925L109.985 70.7992C109.839 70.8159 109.687 70.8264 109.53 70.8307C109.376 70.8406 109.229 70.8451 109.087 70.8442L109.073 70.897C109.195 70.9682 109.321 71.045 109.449 71.1274C109.581 71.2154 109.706 71.3039 109.823 71.3927L116.265 76.2155L115.817 77.8508L106.217 75.2256L106.552 73.9992L113.476 75.8923C113.608 75.9284 113.754 75.9708 113.916 76.0197C114.081 76.0698 114.228 76.1216 114.355 76.1753L114.369 76.1225C114.245 76.0601 114.106 75.9797 113.953 75.8812C113.805 75.784 113.672 75.691 113.555 75.6022L107.378 70.9792L107.677 69.8846L115.347 69.0479C115.493 69.0312 115.655 69.0187 115.832 69.0104C116.014 69.0033 116.174 69.0046 116.313 69.0143L116.327 68.9616C116.191 68.9431 116.038 68.9132 115.87 68.8719C115.706 68.8319 115.558 68.7938 115.426 68.7577L108.503 66.8646L108.831 65.6645Z" fill="white"/>
<path d="M107.399 85.1404L107.913 85.5028C109.165 86.3851 109.915 87.3934 110.163 88.5277C110.409 89.6657 110.178 90.7376 109.469 91.7433C108.76 92.749 107.83 93.3253 106.678 93.4723C105.523 93.6231 104.32 93.2573 103.069 92.375L102.555 92.0127C101.303 91.1304 100.554 90.1202 100.308 88.9822C100.06 87.8479 100.29 86.7779 100.999 85.7722C101.708 84.7665 102.639 84.1883 103.794 84.0375C104.946 83.8905 106.148 84.2582 107.399 85.1404ZM106.635 86.2243C105.682 85.5521 104.782 85.2385 103.936 85.2835C103.088 85.3322 102.414 85.7104 101.915 86.4181C101.416 87.1258 101.288 87.8855 101.529 88.6973C101.769 89.5127 102.365 90.2565 103.319 90.9287L103.833 91.2911C104.786 91.9633 105.687 92.2751 106.536 92.2264C107.381 92.1814 108.054 91.805 108.553 91.0973C109.052 90.3896 109.181 89.628 108.942 88.8126C108.7 88.0009 108.103 87.2589 107.149 86.5867L106.635 86.2243Z" fill="white"/>
<path d="M93.8624 95.2347L99.8905 103.155L97.3121 105.117C96.4635 105.763 95.6475 106.049 94.864 105.975C94.0805 105.902 93.421 105.513 92.8856 104.809C92.3501 104.106 92.1471 103.361 92.2764 102.576C92.4057 101.79 92.8947 101.074 93.7433 100.428L95.2772 99.2607L92.818 96.0296L93.8624 95.2347ZM95.9231 100.109L94.3891 101.277C93.7872 101.735 93.4801 102.201 93.4679 102.674C93.4558 103.147 93.6098 103.594 93.93 104.015C94.2502 104.435 94.6357 104.697 95.0867 104.801C95.5377 104.904 96.0642 104.727 96.6662 104.269L98.2002 103.101L95.9231 100.109ZM89.3693 98.6545L94.088 100.836L93.1745 101.78L88.2052 99.5405L89.3693 98.6545Z" fill="white"/>
<path d="M82.2343 103.483L85.7731 112.786L79.9333 115.007L79.5492 113.998L84.1623 112.243L83.0248 109.253L78.9996 110.784L78.6156 109.774L82.6408 108.243L81.3915 104.959L76.7146 106.738L76.3306 105.729L82.2343 103.483Z" fill="white"/>
<path d="M60.1781 108.8L59.1837 118.703L57.8777 118.572L58.7643 109.744L54.0711 109.272L54.179 108.198L60.1781 108.8Z" fill="white"/>
<path d="M47.0182 107.085L43.3504 116.338L37.5421 114.035L37.9401 113.031L42.5283 114.85L43.7072 111.876L39.7037 110.289L40.1017 109.285L44.1053 110.872L45.4001 107.605L40.7483 105.761L41.1464 104.757L47.0182 107.085Z" fill="white"/>
<path d="M35.3443 102.388L26.1716 107.923L25.2475 107.196L28.4673 96.978L29.5419 97.8233L27.0416 105.424C26.9916 105.576 26.939 105.72 26.8839 105.856C26.8288 105.993 26.7673 106.13 26.6993 106.268L26.7531 106.31C26.8711 106.212 26.9899 106.12 27.1095 106.034C27.2291 105.948 27.3569 105.863 27.4929 105.779L34.3128 101.577L35.3443 102.388ZM32.4595 103.424L31.4747 104.023L27.7998 101.132L28.156 100.038L32.4595 103.424Z" fill="white"/>
<path d="M23.3443 92.3508L15.1903 98.0585L13.3321 95.4039C12.7206 94.5303 12.4673 93.7035 12.5722 92.9236C12.6772 92.1437 13.0918 91.5002 13.8161 90.9932C14.5404 90.4862 15.2925 90.313 16.0724 90.4735C16.8523 90.6341 17.5481 91.1512 18.1596 92.0248L19.265 93.6041L22.5916 91.2756L23.3443 92.3508ZM18.3914 94.2156L17.2859 92.6364C16.8521 92.0166 16.3991 91.6912 15.9268 91.6602C15.4545 91.6292 15.0018 91.7653 14.5687 92.0685C14.1356 92.3716 13.8584 92.7464 13.7371 93.193C13.6157 93.6395 13.772 94.1726 14.2058 94.7924L15.3112 96.3717L18.3914 94.2156ZM20.1063 87.725L17.7384 92.353L16.8312 91.4026L19.2674 86.5266L20.1063 87.725Z" fill="white"/>
<path d="M15.4389 80.4021L5.93677 83.3644L5.52987 82.0591L10.8458 75.6832C10.9492 75.5555 11.0546 75.4343 11.1621 75.3197C11.2682 75.2007 11.3675 75.0981 11.46 75.012L11.4437 74.9598C11.3146 75.0048 11.1702 75.0546 11.0106 75.1091C10.8452 75.1607 10.6973 75.2068 10.5668 75.2475L4.04061 77.282L3.65812 76.0551L13.1602 73.0928L13.5671 74.3981L8.25117 80.774C8.14778 80.9017 8.04234 81.0229 7.93488 81.1375C7.82741 81.2522 7.72879 81.3569 7.63901 81.4518L7.65325 81.4974C7.78242 81.4524 7.92967 81.4041 8.095 81.3526C8.25462 81.298 8.39969 81.2504 8.53021 81.2097L15.0564 79.1752L15.4389 80.4021Z" fill="white"/>
<path d="M10.9747 55.9432L1.2846 53.6702L1.67177 52.0197L9.63372 50.854C9.77932 50.832 9.93053 50.816 10.0873 50.806C10.2408 50.7905 10.3882 50.7806 10.5296 50.7763L10.5421 50.7231C10.4173 50.6563 10.2892 50.5841 10.1576 50.5065C10.0226 50.4233 9.89484 50.3395 9.77422 50.2551L3.16109 45.6705L3.54825 44.02L13.2384 46.293L12.948 47.5309L5.95993 45.8917C5.82683 45.8605 5.67871 45.8234 5.51559 45.7805C5.34803 45.7365 5.19978 45.69 5.07083 45.641L5.05834 45.6943C5.18521 45.7521 5.32669 45.8274 5.4828 45.9202C5.63448 46.012 5.77062 46.1001 5.89124 46.1845L12.233 50.579L11.9738 51.6838L4.33947 52.7999C4.19387 52.8219 4.03275 52.8403 3.8561 52.855C3.67501 52.8687 3.51479 52.8733 3.37544 52.8687L3.36295 52.9219C3.50022 52.9354 3.65367 52.9597 3.82331 52.9948C3.98852 53.0289 4.13767 53.0615 4.27078 53.0927L11.2588 54.7319L10.9747 55.9432Z" fill="white"/>
<path d="M11.7013 36.413L11.1746 36.0693C9.89224 35.2325 9.10645 34.2518 8.81727 33.1271C8.53057 31.9987 8.72343 30.9192 9.39583 29.8887C10.0682 28.8582 10.9774 28.2488 12.1233 28.0605C13.2716 27.8684 14.487 28.1908 15.7694 29.0275L16.2961 29.3712C17.5785 30.208 18.363 31.1906 18.6497 32.3191C18.9389 33.4437 18.7473 34.5213 18.0749 35.5518C17.4025 36.5823 16.4921 37.1936 15.3438 37.3857C14.1979 37.574 12.9837 37.2497 11.7013 36.413ZM12.426 35.3023C13.4031 35.9398 14.3135 36.221 15.1571 36.1456C16.0032 36.0665 16.6628 35.6644 17.136 34.9392C17.6092 34.214 17.7104 33.4502 17.4395 32.6477C17.1712 31.8413 16.5485 31.1194 15.5714 30.4819L15.0447 30.1382C14.0676 29.5007 13.156 29.2215 12.3099 29.3006C11.4663 29.3759 10.8079 29.7762 10.3347 30.5013C9.86156 31.2265 9.75914 31.9922 10.0275 32.7986C10.2983 33.6011 10.9223 34.3211 11.8993 34.9586L12.426 35.3023Z" fill="white"/>
<path d="M24.8666 25.8412L18.5585 18.1423L21.0648 16.0887C21.8897 15.4128 22.695 15.0977 23.4806 15.1433C24.2662 15.1889 24.9392 15.5537 25.4995 16.2376C26.0599 16.9214 26.2895 17.6583 26.1884 18.4481C26.0873 19.2379 25.6243 19.9708 24.7995 20.6467L23.3084 21.8684L25.8819 25.0093L24.8666 25.8412ZM22.6325 21.0436L24.1236 19.8218C24.7088 19.3423 24.9989 18.866 24.9941 18.3927C24.9893 17.9194 24.8194 17.4783 24.4843 17.0694C24.1493 16.6605 23.7545 16.4124 23.3001 16.3252C22.8457 16.238 22.3259 16.4341 21.7407 16.9136L20.2496 18.1354L22.6325 21.0436ZM29.2342 22.2625L24.4404 20.2516L25.3194 19.275L30.3658 21.3353L29.2342 22.2625Z" fill="white"/>
<path d="M36.2032 17.174L32.3323 8.00444L38.0884 5.5745L38.5085 6.56954L33.9615 8.48904L35.2057 11.4364L39.1733 9.76149L39.5934 10.7565L35.6258 12.4315L36.9923 15.6685L41.6022 13.7224L42.0223 14.7175L36.2032 17.174Z" fill="white"/>
</svg>
